<?xml version="1.0" encoding="utf-8"?>
<!-- Generator: Adobe Illustrator 26.0.3, SVG Export Plug-In . SVG Version: 6.00 Build 0)  -->
<svg version="1.0" id="katman_1" xmlns="http://www.w3.org/2000/svg" xmlns:xlink="http://www.w3.org/1999/xlink" x="0px" y="0px"
	 viewBox="0 0 109.9 75.5" style="enable-background:new 0 0 109.9 75.5;" xml:space="preserve">
<style type="text/css">
	.st0{fill-rule:evenodd;clip-rule:evenodd;fill:#414141;}
</style>
<g>
	<path class="st0" d="M20.9,41.5v6h4.4v-6C24,42.6,22.1,42.6,20.9,41.5 M41.2,36.6v-5.5h-6.4v3.4h1.9v2.1
		C38,35.5,39.9,35.5,41.2,36.6 M38.9,26.4c1.3,0,2.3-1,2.3-2.3c0-1.3-1-2.3-2.3-2.3c-1.3,0-2.3,1-2.3,2.3
		C36.5,25.3,37.6,26.4,38.9,26.4 M68.2,36.2V22.8H62v3.3h1.7v10.2C65,35.1,66.9,35.1,68.2,36.2 M77.2,47.8c-0.4,0.7-0.8,1.3-1.3,1.5
		c-0.5,0.3-1.2,0.5-2,0.5h-2v4h2.9c1.5,0,2.8-0.4,3.9-1.2c0.9-0.7,1.7-1.7,2.4-3.1c-0.3,0.1-0.6,0.2-1,0.2
		C78.9,49.6,77.7,48.9,77.2,47.8 M89.3,31.1h-4.7l-3.7,8.2l2.3,5.5L89.3,31.1z M54.7,38.1l0.2-0.3l4.8-6.7h-5l-2.2,3.3l-0.2,0.2
		l2,2.8C54.5,37.6,54.6,37.9,54.7,38.1 M49.1,41.2l-0.6-0.9L48.4,40L43,47.4h5l3.5-4.9C50.6,42.5,49.7,42,49.1,41.2 M53.5,41.9
		c-0.5,0.4-1.2,0.6-1.8,0.6c0,0-0.1,0-0.1,0l3.5,4.9h5l-5.3-7.5C54.7,40.7,54.2,41.5,53.5,41.9 M23.1,39.9c-0.5,0-0.9-0.4-0.9-0.8
		c0,0,0,0,0,0c0-0.5,0.4-0.8,0.9-0.8c0,0,0,0,0,0c0.5,0,0.9,0.4,0.9,0.8c0,0,0,0,0,0C23.9,39.5,23.6,39.9,23.1,39.9
		C23.1,39.9,23.1,39.9,23.1,39.9 M20.9,28.5v10.4c0,1.2,1,2.2,2.2,2.2c1.2,0,2.1-0.9,2.2-2.1c0,0,0-0.1,0-0.1v-4.4h5.1v-3.4h-5.1V29
		h0v-0.4c0-1.4,1.1-2.4,2.5-2.4h5.2v-4.4h-5.2C24,21.7,20.9,24.8,20.9,28.5 M38.9,39.9c-0.5,0-0.9-0.4-0.9-0.8c0,0,0,0,0,0
		c0-0.5,0.4-0.8,0.9-0.8c0,0,0,0,0,0c0.5,0,0.9,0.4,0.9,0.8c0,0,0,0,0,0C39.8,39.5,39.4,39.9,38.9,39.9C39,39.9,39,39.9,38.9,39.9
		 M38.9,36.9c-1.2,0-2.2,1-2.2,2.2v8.3h4.5v-8.3C41.2,37.9,40.2,36.9,38.9,36.9 M66,37.8c0.5,0,0.9,0.4,0.9,0.8c0,0,0,0,0,0
		c0,0.5-0.4,0.8-0.9,0.8c0,0,0,0,0,0c-0.5,0-0.9-0.4-0.9-0.8c0,0,0,0,0,0C65.1,38.2,65.5,37.8,66,37.8C66,37.8,66,37.8,66,37.8z
		 M68.2,40v-1.3c0-1.2-1-2.2-2.2-2.2c-1.2,0-2.2,1-2.2,2.2v8.7h4.5C68.2,47.4,68.2,40,68.2,40z M80.2,47.1c-0.5,0-0.9-0.4-0.9-0.8
		c0,0,0,0,0,0c0-0.5,0.4-0.8,0.9-0.8c0,0,0,0,0,0c0.5,0,0.9,0.4,0.9,0.8c0,0,0,0,0,0C81.1,46.8,80.7,47.1,80.2,47.1
		C80.2,47.1,80.2,47.1,80.2,47.1z M80.3,40.8l-4-9.6v-0.1h-5.9v3.4h2.5l4.9,11.8l0.3,0.8c0.7,1.7,3.1,1.8,4,0.2c0,0,0.1-0.1,0.1-0.2
		c0,0,0-0.1,0.1-0.1c0.2-0.5,0.2-1.1,0-1.6L80.3,40.8z M51.6,40.1c-0.5,0-0.8-0.4-0.8-0.8c0-0.5,0.4-0.8,0.8-0.8s0.8,0.4,0.8,0.8
		S52.1,40.1,51.6,40.1z M49.5,39.6l0.6,0.9c0.2,0.2,0.4,0.4,0.6,0.6c0.5,0.4,1.2,0.4,1.8,0.2c0.1-0.1,0.2-0.1,0.4-0.2
		c0.9-0.6,1.2-2,0.6-2.9l-5-7h-5.1C43.4,31.1,49.5,39.6,49.5,39.6z"/>
</g>
</svg>
